<mxfile host="app.diagrams.net" agent="Mozilla/5.0 (Macintosh; Intel Mac OS X 10_15_7) AppleWebKit/537.36 (KHTML, like Gecko) Chrome/131.0.0.0 Safari/537.36" version="26.0.6">
  <diagram name="Page-1" id="58cdce13-f638-feb5-8d6f-7d28b1aa9fa0">
    <mxGraphModel dx="1687" dy="895" grid="1" gridSize="10" guides="1" tooltips="1" connect="1" arrows="1" fold="1" page="1" pageScale="1" pageWidth="1100" pageHeight="850" background="none" math="0" shadow="0">
      <root>
        <mxCell id="0" />
        <mxCell id="1" parent="0" />
        <mxCell id="382b91b5511bd0f7-1" value="" style="ellipse;html=1;shape=startState;fillColor=#FF3333;strokeColor=#000000;rounded=1;shadow=0;comic=0;labelBackgroundColor=none;fontFamily=Verdana;fontSize=12;fontColor=#000000;align=center;direction=south;" parent="1" vertex="1">
          <mxGeometry x="250" y="50" width="30" height="30" as="geometry" />
        </mxCell>
        <mxCell id="382b91b5511bd0f7-5" value="Password forget" style="rounded=1;whiteSpace=wrap;html=1;arcSize=24;shadow=0;comic=0;labelBackgroundColor=none;fontFamily=Verdana;fontSize=12;align=center;" parent="1" vertex="1">
          <mxGeometry x="30" y="290" width="120" height="60" as="geometry" />
        </mxCell>
        <mxCell id="382b91b5511bd0f7-6" value="Login" style="rounded=1;whiteSpace=wrap;html=1;arcSize=24;shadow=0;comic=0;labelBackgroundColor=none;fontFamily=Verdana;fontSize=12;align=center;" parent="1" vertex="1">
          <mxGeometry x="180" y="130" width="170" height="100" as="geometry" />
        </mxCell>
        <mxCell id="382b91b5511bd0f7-7" value="Main&lt;div&gt;Dashboard&lt;/div&gt;" style="rounded=1;whiteSpace=wrap;html=1;arcSize=24;shadow=0;comic=0;labelBackgroundColor=none;fontFamily=Verdana;fontSize=12;align=center;" parent="1" vertex="1">
          <mxGeometry x="590" y="120" width="330" height="180" as="geometry" />
        </mxCell>
        <mxCell id="2a3bc250acf0617d-9" style="edgeStyle=orthogonalEdgeStyle;html=1;labelBackgroundColor=none;endArrow=open;endSize=8;strokeColor=light-dark(#000000, #ff9090);fontFamily=Verdana;fontSize=12;align=left;" parent="1" source="382b91b5511bd0f7-1" target="382b91b5511bd0f7-6" edge="1">
          <mxGeometry relative="1" as="geometry" />
        </mxCell>
        <mxCell id="2a3bc250acf0617d-10" style="html=1;labelBackgroundColor=none;endArrow=open;endSize=8;strokeColor=#33001A;fontFamily=Verdana;fontSize=12;align=left;exitX=1;exitY=0.25;exitDx=0;exitDy=0;startSize=8;entryX=0.002;entryY=0.191;entryDx=0;entryDy=0;entryPerimeter=0;" parent="1" source="382b91b5511bd0f7-6" target="382b91b5511bd0f7-7" edge="1">
          <mxGeometry relative="1" as="geometry">
            <Array as="points" />
            <mxPoint x="590" y="156" as="targetPoint" />
          </mxGeometry>
        </mxCell>
        <mxCell id="2a3bc250acf0617d-12" style="edgeStyle=orthogonalEdgeStyle;html=1;exitX=0.25;exitY=0;entryX=0.25;entryY=1;labelBackgroundColor=none;endArrow=none;endSize=8;strokeColor=#000000;fontFamily=Verdana;fontSize=12;align=left;startArrow=open;startFill=0;endFill=0;" parent="1" source="382b91b5511bd0f7-5" target="382b91b5511bd0f7-6" edge="1">
          <mxGeometry relative="1" as="geometry">
            <Array as="points">
              <mxPoint x="60" y="260" />
              <mxPoint x="220" y="260" />
              <mxPoint x="220" y="230" />
            </Array>
          </mxGeometry>
        </mxCell>
        <mxCell id="3cde6dad864a17aa-8" style="html=1;labelBackgroundColor=none;endArrow=open;endSize=8;strokeColor=#000000;fontFamily=Verdana;fontSize=12;align=left;exitX=0.25;exitY=1;exitDx=0;exitDy=0;entryX=0.25;entryY=0;entryDx=0;entryDy=0;" parent="1" source="382b91b5511bd0f7-5" target="_Jp7d8yVM3qiL2ZWpyv3-4" edge="1">
          <mxGeometry relative="1" as="geometry">
            <mxPoint x="60" y="510" as="sourcePoint" />
            <mxPoint x="60" y="600" as="targetPoint" />
          </mxGeometry>
        </mxCell>
        <mxCell id="_Jp7d8yVM3qiL2ZWpyv3-2" value="Register" style="rounded=1;whiteSpace=wrap;html=1;arcSize=24;shadow=0;comic=0;labelBackgroundColor=none;fontFamily=Verdana;fontSize=12;align=center;" vertex="1" parent="1">
          <mxGeometry x="280" y="315" width="120" height="60" as="geometry" />
        </mxCell>
        <mxCell id="_Jp7d8yVM3qiL2ZWpyv3-4" value="Reset password" style="rounded=1;whiteSpace=wrap;html=1;arcSize=24;shadow=0;comic=0;labelBackgroundColor=none;fontFamily=Verdana;fontSize=12;align=center;" vertex="1" parent="1">
          <mxGeometry x="30" y="375" width="120" height="60" as="geometry" />
        </mxCell>
        <mxCell id="_Jp7d8yVM3qiL2ZWpyv3-5" style="html=1;labelBackgroundColor=none;endArrow=open;endSize=8;strokeColor=#000000;fontFamily=Verdana;fontSize=12;align=left;exitX=0.25;exitY=1;exitDx=0;exitDy=0;entryX=0;entryY=0.5;entryDx=0;entryDy=0;edgeStyle=orthogonalEdgeStyle;" edge="1" parent="1" source="_Jp7d8yVM3qiL2ZWpyv3-4" target="382b91b5511bd0f7-6">
          <mxGeometry relative="1" as="geometry">
            <mxPoint x="80" y="670" as="sourcePoint" />
            <mxPoint x="60" y="765" as="targetPoint" />
            <Array as="points">
              <mxPoint x="60" y="460" />
              <mxPoint x="10" y="460" />
              <mxPoint x="10" y="180" />
            </Array>
          </mxGeometry>
        </mxCell>
        <mxCell id="_Jp7d8yVM3qiL2ZWpyv3-6" style="html=1;labelBackgroundColor=none;endArrow=open;endSize=8;strokeColor=#000000;fontFamily=Verdana;fontSize=12;align=left;exitX=0.25;exitY=1;exitDx=0;exitDy=0;entryX=0.25;entryY=0;entryDx=0;entryDy=0;" edge="1" parent="1" source="_Jp7d8yVM3qiL2ZWpyv3-2" target="_Jp7d8yVM3qiL2ZWpyv3-7">
          <mxGeometry relative="1" as="geometry">
            <mxPoint x="310" y="495" as="sourcePoint" />
            <mxPoint x="315" y="410" as="targetPoint" />
          </mxGeometry>
        </mxCell>
        <mxCell id="_Jp7d8yVM3qiL2ZWpyv3-7" value="Team select" style="rounded=1;whiteSpace=wrap;html=1;arcSize=24;shadow=0;comic=0;labelBackgroundColor=none;fontFamily=Verdana;fontSize=12;align=center;" vertex="1" parent="1">
          <mxGeometry x="280" y="410" width="120" height="60" as="geometry" />
        </mxCell>
        <mxCell id="_Jp7d8yVM3qiL2ZWpyv3-8" style="html=1;labelBackgroundColor=none;endArrow=open;endSize=8;strokeColor=#000000;fontFamily=Verdana;fontSize=12;align=left;entryX=0.75;entryY=0;entryDx=0;entryDy=0;exitX=0.75;exitY=1;exitDx=0;exitDy=0;" edge="1" parent="1" target="_Jp7d8yVM3qiL2ZWpyv3-9" source="_Jp7d8yVM3qiL2ZWpyv3-7">
          <mxGeometry relative="1" as="geometry">
            <mxPoint x="310" y="460" as="sourcePoint" />
            <mxPoint x="310" y="620" as="targetPoint" />
          </mxGeometry>
        </mxCell>
        <mxCell id="_Jp7d8yVM3qiL2ZWpyv3-9" value="Team create" style="rounded=1;whiteSpace=wrap;html=1;arcSize=24;shadow=0;comic=0;labelBackgroundColor=none;fontFamily=Verdana;fontSize=12;align=center;" vertex="1" parent="1">
          <mxGeometry x="280" y="510" width="120" height="60" as="geometry" />
        </mxCell>
        <mxCell id="_Jp7d8yVM3qiL2ZWpyv3-11" value="Team join" style="rounded=1;whiteSpace=wrap;html=1;arcSize=24;shadow=0;comic=0;labelBackgroundColor=none;fontFamily=Verdana;fontSize=12;align=center;" vertex="1" parent="1">
          <mxGeometry x="140" y="510" width="120" height="60" as="geometry" />
        </mxCell>
        <mxCell id="_Jp7d8yVM3qiL2ZWpyv3-13" style="html=1;labelBackgroundColor=none;endArrow=open;endSize=8;strokeColor=#000000;fontFamily=Verdana;fontSize=12;align=left;exitX=1;exitY=0.5;exitDx=0;exitDy=0;edgeStyle=orthogonalEdgeStyle;entryX=0;entryY=0.5;entryDx=0;entryDy=0;" edge="1" parent="1" source="_Jp7d8yVM3qiL2ZWpyv3-9" target="382b91b5511bd0f7-7">
          <mxGeometry relative="1" as="geometry">
            <mxPoint x="430" y="490" as="sourcePoint" />
            <mxPoint x="460" y="280" as="targetPoint" />
          </mxGeometry>
        </mxCell>
        <mxCell id="_Jp7d8yVM3qiL2ZWpyv3-14" style="html=1;labelBackgroundColor=none;endArrow=open;endSize=8;strokeColor=#000000;fontFamily=Verdana;fontSize=12;align=left;entryX=0.25;entryY=0;entryDx=0;entryDy=0;" edge="1" parent="1" target="_Jp7d8yVM3qiL2ZWpyv3-2">
          <mxGeometry relative="1" as="geometry">
            <mxPoint x="310" y="230" as="sourcePoint" />
            <mxPoint x="319" y="310" as="targetPoint" />
          </mxGeometry>
        </mxCell>
        <mxCell id="_Jp7d8yVM3qiL2ZWpyv3-15" style="html=1;labelBackgroundColor=none;endArrow=open;endSize=8;strokeColor=#000000;fontFamily=Verdana;fontSize=12;align=left;entryX=0.25;entryY=0;entryDx=0;entryDy=0;exitX=0.25;exitY=1;exitDx=0;exitDy=0;edgeStyle=orthogonalEdgeStyle;" edge="1" parent="1" source="_Jp7d8yVM3qiL2ZWpyv3-7" target="_Jp7d8yVM3qiL2ZWpyv3-11">
          <mxGeometry relative="1" as="geometry">
            <mxPoint x="199.5" y="470" as="sourcePoint" />
            <mxPoint x="199.5" y="510" as="targetPoint" />
          </mxGeometry>
        </mxCell>
        <mxCell id="_Jp7d8yVM3qiL2ZWpyv3-17" style="html=1;labelBackgroundColor=none;endArrow=open;endSize=8;strokeColor=#000000;fontFamily=Verdana;fontSize=12;align=left;entryX=0;entryY=0.75;entryDx=0;entryDy=0;exitX=0.75;exitY=1;exitDx=0;exitDy=0;edgeStyle=orthogonalEdgeStyle;" edge="1" parent="1" source="_Jp7d8yVM3qiL2ZWpyv3-11" target="382b91b5511bd0f7-7">
          <mxGeometry relative="1" as="geometry">
            <mxPoint x="220" y="410" as="sourcePoint" />
            <mxPoint x="220" y="450" as="targetPoint" />
          </mxGeometry>
        </mxCell>
        <mxCell id="_Jp7d8yVM3qiL2ZWpyv3-19" style="html=1;labelBackgroundColor=none;endArrow=open;endSize=8;strokeColor=#33001A;fontFamily=Verdana;fontSize=12;align=left;exitX=0.75;exitY=1;exitDx=0;exitDy=0;entryX=0.5;entryY=0;entryDx=0;entryDy=0;edgeStyle=orthogonalEdgeStyle;" edge="1" parent="1" source="382b91b5511bd0f7-7" target="_Jp7d8yVM3qiL2ZWpyv3-20">
          <mxGeometry relative="1" as="geometry">
            <mxPoint x="920" y="200" as="sourcePoint" />
            <mxPoint x="1160" y="201" as="targetPoint" />
          </mxGeometry>
        </mxCell>
        <mxCell id="_Jp7d8yVM3qiL2ZWpyv3-20" value="Room create" style="rounded=1;whiteSpace=wrap;html=1;arcSize=24;shadow=0;comic=0;labelBackgroundColor=none;fontFamily=Verdana;fontSize=12;align=center;" vertex="1" parent="1">
          <mxGeometry x="940" y="390" width="220" height="100" as="geometry" />
        </mxCell>
        <mxCell id="_Jp7d8yVM3qiL2ZWpyv3-21" style="html=1;labelBackgroundColor=none;endArrow=open;endSize=8;strokeColor=#33001A;fontFamily=Verdana;fontSize=12;align=left;exitX=0.5;exitY=1;exitDx=0;exitDy=0;entryX=0.5;entryY=0;entryDx=0;entryDy=0;startArrow=open;startFill=0;" edge="1" parent="1" source="382b91b5511bd0f7-7" target="_Jp7d8yVM3qiL2ZWpyv3-22">
          <mxGeometry relative="1" as="geometry">
            <Array as="points" />
            <mxPoint x="710" y="360" as="sourcePoint" />
            <mxPoint x="950" y="361" as="targetPoint" />
          </mxGeometry>
        </mxCell>
        <mxCell id="_Jp7d8yVM3qiL2ZWpyv3-22" value="Reservation" style="rounded=1;whiteSpace=wrap;html=1;arcSize=24;shadow=0;comic=0;labelBackgroundColor=none;fontFamily=Verdana;fontSize=12;align=center;" vertex="1" parent="1">
          <mxGeometry x="645" y="390" width="220" height="100" as="geometry" />
        </mxCell>
        <mxCell id="_Jp7d8yVM3qiL2ZWpyv3-23" style="html=1;labelBackgroundColor=none;endArrow=open;endSize=8;strokeColor=#33001A;fontFamily=Verdana;fontSize=12;align=left;entryX=0;entryY=0.5;entryDx=0;entryDy=0;exitX=1;exitY=0.25;exitDx=0;exitDy=0;startSize=8;endFill=0;startArrow=open;startFill=0;" edge="1" parent="1" source="382b91b5511bd0f7-7" target="_Jp7d8yVM3qiL2ZWpyv3-24">
          <mxGeometry relative="1" as="geometry">
            <Array as="points" />
            <mxPoint x="930" y="170" as="sourcePoint" />
            <mxPoint x="980" y="250" as="targetPoint" />
          </mxGeometry>
        </mxCell>
        <mxCell id="_Jp7d8yVM3qiL2ZWpyv3-24" value="Mypage" style="rounded=1;whiteSpace=wrap;html=1;arcSize=27;shadow=0;comic=0;labelBackgroundColor=none;fontFamily=Verdana;fontSize=12;align=center;" vertex="1" parent="1">
          <mxGeometry x="1010" y="130" width="130" height="70" as="geometry" />
        </mxCell>
        <mxCell id="_Jp7d8yVM3qiL2ZWpyv3-26" style="html=1;labelBackgroundColor=none;endArrow=open;endSize=8;strokeColor=#33001A;fontFamily=Verdana;fontSize=12;align=left;exitX=0.5;exitY=0;exitDx=0;exitDy=0;startSize=8;edgeStyle=orthogonalEdgeStyle;entryX=0.75;entryY=0;entryDx=0;entryDy=0;" edge="1" parent="1" source="_Jp7d8yVM3qiL2ZWpyv3-24" target="382b91b5511bd0f7-6">
          <mxGeometry relative="1" as="geometry">
            <Array as="points">
              <mxPoint x="1075" y="90" />
              <mxPoint x="307" y="90" />
            </Array>
            <mxPoint x="1030" y="100" as="sourcePoint" />
            <mxPoint x="410" y="50" as="targetPoint" />
          </mxGeometry>
        </mxCell>
        <mxCell id="_Jp7d8yVM3qiL2ZWpyv3-27" value="Team show" style="rounded=1;whiteSpace=wrap;html=1;arcSize=27;shadow=0;comic=0;labelBackgroundColor=none;fontFamily=Verdana;fontSize=12;align=center;" vertex="1" parent="1">
          <mxGeometry x="1220" y="130" width="130" height="70" as="geometry" />
        </mxCell>
        <mxCell id="_Jp7d8yVM3qiL2ZWpyv3-30" style="html=1;labelBackgroundColor=none;endArrow=open;endSize=8;strokeColor=#33001A;fontFamily=Verdana;fontSize=12;align=left;exitX=1;exitY=0.5;exitDx=0;exitDy=0;startSize=8;entryX=0;entryY=0.5;entryDx=0;entryDy=0;startArrow=open;startFill=0;" edge="1" parent="1" source="_Jp7d8yVM3qiL2ZWpyv3-24" target="_Jp7d8yVM3qiL2ZWpyv3-27">
          <mxGeometry relative="1" as="geometry">
            <Array as="points" />
            <mxPoint x="1150" y="164.41" as="sourcePoint" />
            <mxPoint x="1220" y="164" as="targetPoint" />
          </mxGeometry>
        </mxCell>
        <mxCell id="_Jp7d8yVM3qiL2ZWpyv3-31" style="html=1;labelBackgroundColor=none;endArrow=open;endSize=8;strokeColor=#33001A;fontFamily=Verdana;fontSize=12;align=left;exitX=0.5;exitY=1;exitDx=0;exitDy=0;entryX=1;entryY=0.75;entryDx=0;entryDy=0;edgeStyle=orthogonalEdgeStyle;" edge="1" parent="1" source="_Jp7d8yVM3qiL2ZWpyv3-20" target="382b91b5511bd0f7-7">
          <mxGeometry relative="1" as="geometry">
            <mxPoint x="1070" y="520" as="sourcePoint" />
            <mxPoint x="1282" y="610" as="targetPoint" />
            <Array as="points">
              <mxPoint x="1050" y="530" />
              <mxPoint x="1210" y="530" />
              <mxPoint x="1210" y="255" />
            </Array>
          </mxGeometry>
        </mxCell>
      </root>
    </mxGraphModel>
  </diagram>
</mxfile>
